<?xml version="1.0" encoding="UTF-8"?>
<svg viewBox="0 0 115 115" xmlns="http://www.w3.org/2000/svg">
 <path d="m96.45 89.377c-0.4665-14.637-0.204-45.026 8.55-64.377 0 0-11.25-4.3746-15 68.125 0 0-1.2504-60 13.75-78.75 0 0-18.124 0-19.375 78.125 0 0 4.3746-71.25 1.2504-82.5 0 0-5.625 31.875-8.7504 82.5 0 0 1.875-55.625-9.375-71.875 0 0 8.1246 25.624 5.625 68.125 0 0-1.2504-60-17.5-77.5 0 0 11.25 22.5 11.875 77.5 0 0-3.1254-40-6.8754-52.5 0 0 0.6258 43.125 3.1254 52.5 0 0-12.5-48.75-9.375-66.875 0 0-8.1246 10.625 4.3746 66.875 0 0-11.25-58.125-15.625-68.75l8.1246 68.126s-12.499-66.251-16.875-74.375c0 0 9.375 64.375 10.001 74.375 0 0-8.7504-50-16.25-55.625 0 0 11.25 47.5 11.25 55.625 0 0-16.875-40.625-13.125-67.5 0 0-9.9996 13.125 6.8754 67.5l-4.3758 0.6246s-11.25-68.75-16.875-75.625l9.1266 77.186-3.0938-9.4254-6.0328-6.8226c5.9379 11.562 5.6273 17.187 5.6273 17.187-0.063271 2.2043-0.16755 4.3946-0.31404 6.5625h82.969s-0.18839-2.3379-0.3468-6.2625c0 0 0.97171-11.55 6.1278-19.362 0 0-7.656 4.2186-8.9061 15.469l-0.5814 1.7203" fill="#00a650"/>
</svg>
